<mxfile host="app.diagrams.net" modified="2022-10-06T19:35:05.937Z" agent="5.0 (Windows NT 10.0; Win64; x64) AppleWebKit/537.36 (KHTML, like Gecko) Chrome/106.0.0.0 Safari/537.36" etag="Seke3evCJkd1skfV8H0c" version="20.4.0" type="github">
  <diagram id="C5RBs43oDa-KdzZeNtuy" name="Page-1">
    <mxGraphModel dx="2716" dy="1676" grid="1" gridSize="10" guides="1" tooltips="1" connect="1" arrows="1" fold="1" page="1" pageScale="1" pageWidth="827" pageHeight="1169" math="0" shadow="0">
      <root>
        <mxCell id="WIyWlLk6GJQsqaUBKTNV-0" />
        <mxCell id="WIyWlLk6GJQsqaUBKTNV-1" parent="WIyWlLk6GJQsqaUBKTNV-0" />
        <mxCell id="WIyWlLk6GJQsqaUBKTNV-2" value="" style="rounded=0;html=1;jettySize=auto;orthogonalLoop=1;fontSize=11;endArrow=block;endFill=0;endSize=8;strokeWidth=1;shadow=0;labelBackgroundColor=none;edgeStyle=orthogonalEdgeStyle;" parent="WIyWlLk6GJQsqaUBKTNV-1" source="WIyWlLk6GJQsqaUBKTNV-3" target="WIyWlLk6GJQsqaUBKTNV-6" edge="1">
          <mxGeometry relative="1" as="geometry" />
        </mxCell>
        <mxCell id="WIyWlLk6GJQsqaUBKTNV-3" value="Akıllı Tahta Uygulaması Açıldı" style="rounded=1;whiteSpace=wrap;html=1;fontSize=12;glass=0;strokeWidth=1;shadow=0;" parent="WIyWlLk6GJQsqaUBKTNV-1" vertex="1">
          <mxGeometry x="160" y="80" width="120" height="40" as="geometry" />
        </mxCell>
        <mxCell id="yaEDkW5H6abxThRePB5Y-2" value="" style="edgeStyle=orthogonalEdgeStyle;rounded=0;orthogonalLoop=1;jettySize=auto;html=1;" edge="1" parent="WIyWlLk6GJQsqaUBKTNV-1" source="WIyWlLk6GJQsqaUBKTNV-6" target="yaEDkW5H6abxThRePB5Y-1">
          <mxGeometry relative="1" as="geometry" />
        </mxCell>
        <mxCell id="yaEDkW5H6abxThRePB5Y-8" value="" style="edgeStyle=orthogonalEdgeStyle;rounded=0;orthogonalLoop=1;jettySize=auto;html=1;" edge="1" parent="WIyWlLk6GJQsqaUBKTNV-1" source="WIyWlLk6GJQsqaUBKTNV-6" target="yaEDkW5H6abxThRePB5Y-7">
          <mxGeometry relative="1" as="geometry" />
        </mxCell>
        <mxCell id="WIyWlLk6GJQsqaUBKTNV-6" value="ID varsa ve formatlanmış" style="rhombus;whiteSpace=wrap;html=1;shadow=0;fontFamily=Helvetica;fontSize=12;align=center;strokeWidth=1;spacing=6;spacingTop=-4;" parent="WIyWlLk6GJQsqaUBKTNV-1" vertex="1">
          <mxGeometry x="161.25" y="230" width="117.5" height="90" as="geometry" />
        </mxCell>
        <mxCell id="WIyWlLk6GJQsqaUBKTNV-9" value="Yes" style="edgeStyle=orthogonalEdgeStyle;rounded=0;html=1;jettySize=auto;orthogonalLoop=1;fontSize=11;endArrow=block;endFill=0;endSize=8;strokeWidth=1;shadow=0;labelBackgroundColor=none;" parent="WIyWlLk6GJQsqaUBKTNV-1" target="WIyWlLk6GJQsqaUBKTNV-12" edge="1">
          <mxGeometry y="10" relative="1" as="geometry">
            <mxPoint as="offset" />
            <mxPoint x="270" y="330" as="sourcePoint" />
          </mxGeometry>
        </mxCell>
        <mxCell id="yaEDkW5H6abxThRePB5Y-0" value="ID = Ortam Değişkenlerinde kayıt ID&#39;si" style="rounded=1;whiteSpace=wrap;html=1;" vertex="1" parent="WIyWlLk6GJQsqaUBKTNV-1">
          <mxGeometry x="160" y="150" width="120" height="50" as="geometry" />
        </mxCell>
        <mxCell id="yaEDkW5H6abxThRePB5Y-5" value="" style="edgeStyle=orthogonalEdgeStyle;rounded=0;orthogonalLoop=1;jettySize=auto;html=1;" edge="1" parent="WIyWlLk6GJQsqaUBKTNV-1" source="yaEDkW5H6abxThRePB5Y-1" target="yaEDkW5H6abxThRePB5Y-4">
          <mxGeometry relative="1" as="geometry" />
        </mxCell>
        <mxCell id="yaEDkW5H6abxThRePB5Y-1" value="Uygulama ilk defa açılıyor gibi davran" style="rounded=1;whiteSpace=wrap;html=1;shadow=0;strokeWidth=1;spacing=6;spacingTop=-4;" vertex="1" parent="WIyWlLk6GJQsqaUBKTNV-1">
          <mxGeometry x="350" y="245" width="120" height="60" as="geometry" />
        </mxCell>
        <mxCell id="yaEDkW5H6abxThRePB5Y-3" value="Hayır" style="text;html=1;align=center;verticalAlign=middle;resizable=0;points=[];autosize=1;strokeColor=none;fillColor=none;" vertex="1" parent="WIyWlLk6GJQsqaUBKTNV-1">
          <mxGeometry x="275" y="245" width="50" height="30" as="geometry" />
        </mxCell>
        <mxCell id="yaEDkW5H6abxThRePB5Y-21" value="" style="edgeStyle=orthogonalEdgeStyle;rounded=0;orthogonalLoop=1;jettySize=auto;html=1;" edge="1" parent="WIyWlLk6GJQsqaUBKTNV-1" source="yaEDkW5H6abxThRePB5Y-4">
          <mxGeometry relative="1" as="geometry">
            <mxPoint x="610" y="390" as="targetPoint" />
          </mxGeometry>
        </mxCell>
        <mxCell id="yaEDkW5H6abxThRePB5Y-4" value="Sınıf kayıt etme ekranına yönlendir" style="whiteSpace=wrap;html=1;rounded=1;shadow=0;strokeWidth=1;spacing=6;spacingTop=-4;" vertex="1" parent="WIyWlLk6GJQsqaUBKTNV-1">
          <mxGeometry x="550" y="245" width="120" height="60" as="geometry" />
        </mxCell>
        <mxCell id="yaEDkW5H6abxThRePB5Y-13" value="" style="edgeStyle=orthogonalEdgeStyle;rounded=0;orthogonalLoop=1;jettySize=auto;html=1;" edge="1" parent="WIyWlLk6GJQsqaUBKTNV-1" source="yaEDkW5H6abxThRePB5Y-7" target="yaEDkW5H6abxThRePB5Y-12">
          <mxGeometry relative="1" as="geometry" />
        </mxCell>
        <mxCell id="yaEDkW5H6abxThRePB5Y-7" value="Google Firestore Database&#39;e istek gönder" style="rounded=1;whiteSpace=wrap;html=1;shadow=0;strokeWidth=1;spacing=6;spacingTop=-4;" vertex="1" parent="WIyWlLk6GJQsqaUBKTNV-1">
          <mxGeometry x="160" y="415" width="120" height="60" as="geometry" />
        </mxCell>
        <mxCell id="yaEDkW5H6abxThRePB5Y-9" value="Evet" style="text;html=1;align=center;verticalAlign=middle;resizable=0;points=[];autosize=1;strokeColor=none;fillColor=none;" vertex="1" parent="WIyWlLk6GJQsqaUBKTNV-1">
          <mxGeometry x="215" y="335" width="50" height="30" as="geometry" />
        </mxCell>
        <mxCell id="yaEDkW5H6abxThRePB5Y-14" style="edgeStyle=orthogonalEdgeStyle;rounded=0;orthogonalLoop=1;jettySize=auto;html=1;entryX=0.587;entryY=1;entryDx=0;entryDy=0;entryPerimeter=0;exitX=0.968;exitY=0.505;exitDx=0;exitDy=0;exitPerimeter=0;" edge="1" parent="WIyWlLk6GJQsqaUBKTNV-1" source="yaEDkW5H6abxThRePB5Y-12" target="yaEDkW5H6abxThRePB5Y-1">
          <mxGeometry relative="1" as="geometry">
            <mxPoint x="420" y="310" as="targetPoint" />
            <mxPoint x="280" y="578" as="sourcePoint" />
            <Array as="points">
              <mxPoint x="420" y="578" />
            </Array>
          </mxGeometry>
        </mxCell>
        <mxCell id="yaEDkW5H6abxThRePB5Y-19" value="" style="edgeStyle=orthogonalEdgeStyle;rounded=0;orthogonalLoop=1;jettySize=auto;html=1;" edge="1" parent="WIyWlLk6GJQsqaUBKTNV-1" source="yaEDkW5H6abxThRePB5Y-12" target="yaEDkW5H6abxThRePB5Y-18">
          <mxGeometry relative="1" as="geometry" />
        </mxCell>
        <mxCell id="yaEDkW5H6abxThRePB5Y-12" value="Ortam değişkenindeki ID, DB&#39;de var" style="rhombus;whiteSpace=wrap;html=1;rounded=1;shadow=0;strokeWidth=1;spacing=6;spacingTop=-4;" vertex="1" parent="WIyWlLk6GJQsqaUBKTNV-1">
          <mxGeometry x="161.25" y="530" width="117.5" height="95" as="geometry" />
        </mxCell>
        <mxCell id="yaEDkW5H6abxThRePB5Y-16" value="Hayır" style="text;html=1;align=center;verticalAlign=middle;resizable=0;points=[];autosize=1;strokeColor=none;fillColor=none;" vertex="1" parent="WIyWlLk6GJQsqaUBKTNV-1">
          <mxGeometry x="275" y="545" width="50" height="30" as="geometry" />
        </mxCell>
        <mxCell id="yaEDkW5H6abxThRePB5Y-17" value="Ortam değişkenlerindeki ID&#39;yi sıfırla" style="rounded=1;whiteSpace=wrap;html=1;" vertex="1" parent="WIyWlLk6GJQsqaUBKTNV-1">
          <mxGeometry x="360" y="390" width="120" height="60" as="geometry" />
        </mxCell>
        <mxCell id="yaEDkW5H6abxThRePB5Y-18" value="Sınıf Arayüz Ekranına Yönlendir" style="whiteSpace=wrap;html=1;rounded=1;shadow=0;strokeWidth=1;spacing=6;spacingTop=-4;" vertex="1" parent="WIyWlLk6GJQsqaUBKTNV-1">
          <mxGeometry x="160" y="722.5" width="120" height="60" as="geometry" />
        </mxCell>
        <mxCell id="yaEDkW5H6abxThRePB5Y-22" value="Evet" style="text;html=1;align=center;verticalAlign=middle;resizable=0;points=[];autosize=1;strokeColor=none;fillColor=none;" vertex="1" parent="WIyWlLk6GJQsqaUBKTNV-1">
          <mxGeometry x="215" y="640" width="50" height="30" as="geometry" />
        </mxCell>
        <mxCell id="yaEDkW5H6abxThRePB5Y-23" value="Sınıf Kayıt Edildiğinde" style="text;html=1;align=center;verticalAlign=middle;resizable=0;points=[];autosize=1;strokeColor=none;fillColor=none;" vertex="1" parent="WIyWlLk6GJQsqaUBKTNV-1">
          <mxGeometry x="610" y="330" width="140" height="30" as="geometry" />
        </mxCell>
        <mxCell id="yaEDkW5H6abxThRePB5Y-29" value="" style="edgeStyle=orthogonalEdgeStyle;rounded=0;orthogonalLoop=1;jettySize=auto;html=1;" edge="1" parent="WIyWlLk6GJQsqaUBKTNV-1" source="yaEDkW5H6abxThRePB5Y-24" target="yaEDkW5H6abxThRePB5Y-28">
          <mxGeometry relative="1" as="geometry" />
        </mxCell>
        <mxCell id="yaEDkW5H6abxThRePB5Y-24" value="class = Sınıf adı kısmına yazılanın md5 algoritmasıyla şifrele" style="whiteSpace=wrap;html=1;rounded=1;shadow=0;strokeWidth=1;spacing=6;spacingTop=-4;" vertex="1" parent="WIyWlLk6GJQsqaUBKTNV-1">
          <mxGeometry x="545" y="377.5" width="130" height="72.5" as="geometry" />
        </mxCell>
        <mxCell id="yaEDkW5H6abxThRePB5Y-31" value="" style="edgeStyle=orthogonalEdgeStyle;rounded=0;orthogonalLoop=1;jettySize=auto;html=1;" edge="1" parent="WIyWlLk6GJQsqaUBKTNV-1" source="yaEDkW5H6abxThRePB5Y-28" target="yaEDkW5H6abxThRePB5Y-30">
          <mxGeometry relative="1" as="geometry" />
        </mxCell>
        <mxCell id="yaEDkW5H6abxThRePB5Y-28" value="salt = 8 basamaklı bir ek koruma. (secrets.token_hex)" style="whiteSpace=wrap;html=1;rounded=1;shadow=0;strokeWidth=1;spacing=6;spacingTop=-4;" vertex="1" parent="WIyWlLk6GJQsqaUBKTNV-1">
          <mxGeometry x="550" y="536.25" width="120" height="60" as="geometry" />
        </mxCell>
        <mxCell id="yaEDkW5H6abxThRePB5Y-33" value="" style="edgeStyle=orthogonalEdgeStyle;rounded=0;orthogonalLoop=1;jettySize=auto;html=1;" edge="1" parent="WIyWlLk6GJQsqaUBKTNV-1" source="yaEDkW5H6abxThRePB5Y-30" target="yaEDkW5H6abxThRePB5Y-32">
          <mxGeometry relative="1" as="geometry" />
        </mxCell>
        <mxCell id="yaEDkW5H6abxThRePB5Y-30" value="id = class + salt" style="whiteSpace=wrap;html=1;rounded=1;shadow=0;strokeWidth=1;spacing=6;spacingTop=-4;" vertex="1" parent="WIyWlLk6GJQsqaUBKTNV-1">
          <mxGeometry x="550" y="676.25" width="120" height="60" as="geometry" />
        </mxCell>
        <mxCell id="yaEDkW5H6abxThRePB5Y-36" style="edgeStyle=orthogonalEdgeStyle;rounded=0;orthogonalLoop=1;jettySize=auto;html=1;exitX=0.031;exitY=0.5;exitDx=0;exitDy=0;exitPerimeter=0;" edge="1" parent="WIyWlLk6GJQsqaUBKTNV-1" source="yaEDkW5H6abxThRePB5Y-32">
          <mxGeometry relative="1" as="geometry">
            <mxPoint x="420" y="578" as="targetPoint" />
            <Array as="points">
              <mxPoint x="420" y="851" />
            </Array>
          </mxGeometry>
        </mxCell>
        <mxCell id="yaEDkW5H6abxThRePB5Y-39" value="" style="edgeStyle=orthogonalEdgeStyle;rounded=0;orthogonalLoop=1;jettySize=auto;html=1;" edge="1" parent="WIyWlLk6GJQsqaUBKTNV-1" source="yaEDkW5H6abxThRePB5Y-32" target="yaEDkW5H6abxThRePB5Y-38">
          <mxGeometry relative="1" as="geometry" />
        </mxCell>
        <mxCell id="yaEDkW5H6abxThRePB5Y-32" value="id başarıyla oluşturuldu" style="rhombus;whiteSpace=wrap;html=1;rounded=1;shadow=0;strokeWidth=1;spacing=6;spacingTop=-4;" vertex="1" parent="WIyWlLk6GJQsqaUBKTNV-1">
          <mxGeometry x="551.25" y="806.25" width="117.5" height="90" as="geometry" />
        </mxCell>
        <mxCell id="yaEDkW5H6abxThRePB5Y-37" value="Hayır" style="text;html=1;align=center;verticalAlign=middle;resizable=0;points=[];autosize=1;strokeColor=none;fillColor=none;" vertex="1" parent="WIyWlLk6GJQsqaUBKTNV-1">
          <mxGeometry x="485" y="815" width="50" height="30" as="geometry" />
        </mxCell>
        <mxCell id="yaEDkW5H6abxThRePB5Y-41" value="" style="edgeStyle=orthogonalEdgeStyle;rounded=0;orthogonalLoop=1;jettySize=auto;html=1;" edge="1" parent="WIyWlLk6GJQsqaUBKTNV-1" source="yaEDkW5H6abxThRePB5Y-38" target="yaEDkW5H6abxThRePB5Y-40">
          <mxGeometry relative="1" as="geometry" />
        </mxCell>
        <mxCell id="yaEDkW5H6abxThRePB5Y-38" value="Google Firestore&#39;a istek gönder." style="whiteSpace=wrap;html=1;rounded=1;shadow=0;strokeWidth=1;spacing=6;spacingTop=-4;" vertex="1" parent="WIyWlLk6GJQsqaUBKTNV-1">
          <mxGeometry x="550" y="991.25" width="120" height="60" as="geometry" />
        </mxCell>
        <mxCell id="yaEDkW5H6abxThRePB5Y-43" value="" style="edgeStyle=orthogonalEdgeStyle;rounded=0;orthogonalLoop=1;jettySize=auto;html=1;" edge="1" parent="WIyWlLk6GJQsqaUBKTNV-1" source="yaEDkW5H6abxThRePB5Y-40" target="yaEDkW5H6abxThRePB5Y-42">
          <mxGeometry relative="1" as="geometry" />
        </mxCell>
        <mxCell id="yaEDkW5H6abxThRePB5Y-40" value="ID&#39;yi ortam değişkenlerine ekle" style="whiteSpace=wrap;html=1;rounded=1;shadow=0;strokeWidth=1;spacing=6;spacingTop=-4;" vertex="1" parent="WIyWlLk6GJQsqaUBKTNV-1">
          <mxGeometry x="350" y="991.25" width="120" height="60" as="geometry" />
        </mxCell>
        <mxCell id="yaEDkW5H6abxThRePB5Y-47" value="" style="edgeStyle=orthogonalEdgeStyle;rounded=0;orthogonalLoop=1;jettySize=auto;html=1;" edge="1" parent="WIyWlLk6GJQsqaUBKTNV-1" source="yaEDkW5H6abxThRePB5Y-42" target="yaEDkW5H6abxThRePB5Y-46">
          <mxGeometry relative="1" as="geometry" />
        </mxCell>
        <mxCell id="yaEDkW5H6abxThRePB5Y-42" value="Sınıfı Firestore&#39;a kaydet, id&#39;yi de ekle." style="whiteSpace=wrap;html=1;rounded=1;shadow=0;strokeWidth=1;spacing=6;spacingTop=-4;" vertex="1" parent="WIyWlLk6GJQsqaUBKTNV-1">
          <mxGeometry x="150" y="991.25" width="120" height="60" as="geometry" />
        </mxCell>
        <mxCell id="yaEDkW5H6abxThRePB5Y-49" style="edgeStyle=orthogonalEdgeStyle;rounded=0;orthogonalLoop=1;jettySize=auto;html=1;exitX=1;exitY=0.5;exitDx=0;exitDy=0;" edge="1" parent="WIyWlLk6GJQsqaUBKTNV-1" source="yaEDkW5H6abxThRePB5Y-46">
          <mxGeometry relative="1" as="geometry">
            <mxPoint x="420" y="850" as="targetPoint" />
          </mxGeometry>
        </mxCell>
        <mxCell id="yaEDkW5H6abxThRePB5Y-51" style="edgeStyle=orthogonalEdgeStyle;rounded=0;orthogonalLoop=1;jettySize=auto;html=1;exitX=0;exitY=0.5;exitDx=0;exitDy=0;entryX=0;entryY=0.458;entryDx=0;entryDy=0;entryPerimeter=0;" edge="1" parent="WIyWlLk6GJQsqaUBKTNV-1" source="yaEDkW5H6abxThRePB5Y-46" target="yaEDkW5H6abxThRePB5Y-18">
          <mxGeometry relative="1" as="geometry">
            <mxPoint x="80" y="770" as="targetPoint" />
            <Array as="points">
              <mxPoint x="80" y="850" />
              <mxPoint x="80" y="750" />
            </Array>
          </mxGeometry>
        </mxCell>
        <mxCell id="yaEDkW5H6abxThRePB5Y-46" value="Verileri ekleme işlemleri başarılı" style="rhombus;whiteSpace=wrap;html=1;rounded=1;shadow=0;strokeWidth=1;spacing=6;spacingTop=-4;" vertex="1" parent="WIyWlLk6GJQsqaUBKTNV-1">
          <mxGeometry x="151.25" y="805" width="117.5" height="90" as="geometry" />
        </mxCell>
        <mxCell id="yaEDkW5H6abxThRePB5Y-50" value="Hayır" style="text;html=1;align=center;verticalAlign=middle;resizable=0;points=[];autosize=1;strokeColor=none;fillColor=none;" vertex="1" parent="WIyWlLk6GJQsqaUBKTNV-1">
          <mxGeometry x="260" y="825" width="50" height="30" as="geometry" />
        </mxCell>
        <mxCell id="yaEDkW5H6abxThRePB5Y-52" value="Evet" style="text;html=1;align=center;verticalAlign=middle;resizable=0;points=[];autosize=1;strokeColor=none;fillColor=none;" vertex="1" parent="WIyWlLk6GJQsqaUBKTNV-1">
          <mxGeometry x="85" y="825" width="50" height="30" as="geometry" />
        </mxCell>
        <mxCell id="yaEDkW5H6abxThRePB5Y-53" value="Evet" style="text;html=1;align=center;verticalAlign=middle;resizable=0;points=[];autosize=1;strokeColor=none;fillColor=none;" vertex="1" parent="WIyWlLk6GJQsqaUBKTNV-1">
          <mxGeometry x="605" y="895" width="50" height="30" as="geometry" />
        </mxCell>
      </root>
    </mxGraphModel>
  </diagram>
</mxfile>
